<svg xmlns="http://www.w3.org/2000/svg" width="30.003" height="30" viewBox="0 0 30.003 30">
  <path id="bx-brush" d="M20.561,3.44a1.5,1.5,0,0,0-2.121,0L9.68,12.2c-.022,0-.044-.013-.066-.013a1.5,1.5,0,0,0-1.06.44L6.432,14.746a4.5,4.5,0,0,0,0,6.364l1.06,1.06L4.311,25.353A4.38,4.38,0,0,0,3,28.518,4.452,4.452,0,0,0,4.6,31.98,4.377,4.377,0,0,0,7.423,33,4.813,4.813,0,0,0,10.8,31.595l3.06-3.059,1.06,1.059a4.608,4.608,0,0,0,6.363,0L23.4,27.476a1.5,1.5,0,0,0,.44-1.06c0-.039-.019-.075-.022-.114l8.741-8.741a1.5,1.5,0,0,0,0-2.121l-12-12Zm-1.4,24.036a1.534,1.534,0,0,1-2.121,0l-2.121-2.119a1.5,1.5,0,0,0-2.121,0L8.676,29.472A1.785,1.785,0,0,1,7.422,30a1.365,1.365,0,0,1-.891-.312A1.467,1.467,0,0,1,6,28.515a1.438,1.438,0,0,1,.43-1.038l4.244-4.244a1.5,1.5,0,0,0,0-2.121L8.551,18.99a1.5,1.5,0,0,1,0-2.121l1.06-1.06L20.22,26.417l-1.062,1.059Zm2.833-3.588-9.879-9.879L19.5,6.621,29.379,16.5l-7.387,7.387Z" transform="translate(-3 -3)" fill="#fff"/>
</svg>
