<svg xmlns="http://www.w3.org/2000/svg" xmlns:xlink="http://www.w3.org/1999/xlink" width="29" height="30" viewBox="0 0 29 30">
  <defs>
    <clipPath id="clip-path">
      <rect id="Rectangle_9" data-name="Rectangle 9" width="29" height="30" fill="#fff"/>
    </clipPath>
  </defs>
  <g id="Mask_Group_1" data-name="Mask Group 1" clip-path="url(#clip-path)">
    <g id="Layer_2" data-name="Layer 2" transform="translate(-0.01 0.49)">
      <g id="invisible_box" data-name="invisible box">
        <rect id="Rectangle_11" data-name="Rectangle 11" width="29.021" height="29.021" fill="none"/>
      </g>
      <g id="Q3_icons" data-name="Q3 icons" transform="translate(0.815 3.009)">
        <g id="Group_2" data-name="Group 2" transform="translate(0)">
          <path id="Path_1" data-name="Path 1" d="M20.873,4.567a1.149,1.149,0,0,0-1.693.121,1.209,1.209,0,1,0,1.693-.121Z" transform="translate(-6.331 -4.251)" fill="#fff"/>
          <path id="Path_2" data-name="Path 2" d="M26.77,6.962a1.33,1.33,0,0,0,.121,1.874A1.391,1.391,0,1,0,28.7,6.78a1.33,1.33,0,0,0-1.935.181Z" transform="translate(-8.54 -4.893)" fill="#fff"/>
          <path id="Path_3" data-name="Path 3" d="M34.593,15.3a1.632,1.632,0,1,0-1.14.6,1.632,1.632,0,0,0,1.14-.6Z" transform="translate(-10.076 -6.701)" fill="#fff"/>
          <path id="Path_4" data-name="Path 4" d="M34.363,23.3a2.116,2.116,0,1,0,.066,2.813,2.116,2.116,0,0,0-.066-2.813Z" transform="translate(-9.784 -9.62)" fill="#fff"/>
          <path id="Path_5" data-name="Path 5" d="M22.02,31.291a2.721,2.721,0,1,0,3.809-.3,2.66,2.66,0,0,0-3.809.3Z" transform="translate(-7.055 -11.869)" fill="#fff"/>
          <path id="Path_6" data-name="Path 6" d="M8.155,28.874a3.083,3.083,0,0,0,.3,4.293,3.023,3.023,0,1,0-.3-4.293Z" transform="translate(-2.985 -11.146)" fill="#fff"/>
          <circle id="Ellipse_7" data-name="Ellipse 7" cx="3.336" cy="3.336" r="3.336" transform="translate(0 7.32) rotate(-4.574)" fill="#fff"/>
        </g>
      </g>
    </g>
  </g>
</svg>
