<svg xmlns="http://www.w3.org/2000/svg" width="30.251" height="30.281" viewBox="0 0 30.251 30.281">
  <path id="seo" d="M29.988,28.569,28.6,29.987a1.079,1.079,0,0,1-1.418,0L22.72,25.5a7.55,7.55,0,0,1-3.782,1,7.565,7.565,0,0,1-7.563-7.563,7.565,7.565,0,0,1,7.563-7.563A7.565,7.565,0,0,1,26.5,18.937a7.389,7.389,0,0,1-1,3.752l4.491,4.491a.963.963,0,0,1,0,1.388Zm-11.034-15.3a5.5,5.5,0,0,0-4.018,1.655,5.425,5.425,0,0,0-1.669,4,5.7,5.7,0,0,0,5.687,5.687,5.43,5.43,0,0,0,4-1.669,5.508,5.508,0,0,0,1.655-4.018,5.649,5.649,0,0,0-5.658-5.658Zm1.876-3.6V9.484a1.8,1.8,0,0,1,.561-1.344,1.84,1.84,0,0,1,1.329-.547H26.5a1.878,1.878,0,0,1,1.359.547,1.8,1.8,0,0,1,.561,1.344v9.454h-.029a9.216,9.216,0,0,0-2.142-6.012,9.106,9.106,0,0,0-5.421-3.265Zm-9.454,3.6V5.7a1.8,1.8,0,0,1,.561-1.344,1.84,1.84,0,0,1,1.329-.547h3.782A1.867,1.867,0,0,1,18.938,5.7V9.484A9.161,9.161,0,0,0,14.683,10.5a9.674,9.674,0,0,0-3.309,2.762Zm0,11.315a9.542,9.542,0,0,0,3.309,2.792,9.161,9.161,0,0,0,4.255,1.02H20.83a1.84,1.84,0,0,1-.547,1.329,1.8,1.8,0,0,1-1.344.561H1.922a1.816,1.816,0,0,1-1.329-.561,1.834,1.834,0,0,1-.561-1.344,1.807,1.807,0,0,1,.547-1.329A1.831,1.831,0,0,1,1.923,26.5V1.891A1.816,1.816,0,0,1,2.484.562,1.816,1.816,0,0,1,3.813,0H7.595A1.8,1.8,0,0,1,8.939.562a1.84,1.84,0,0,1,.547,1.329V26.5h1.891v-1.92Z" transform="translate(-0.032 -0.001)" fill="#fff"/>
</svg>
